# xmcd
#
# Track frame offsets: 
#        150
#        18719
#        35219
#        49891
#        66472
#        80372
#        95189
#        109719
#        124500
#        139665
#        159558
#        180339
#        196584
#        215469
#        231615
#
# Disc length: 3297 seconds
#
# Revision: 0
# Processed by: cddbd v1.5.2PL0 Copyright (c) Steve Scherf et al.
# Submitted via: ExactAudioCopy v1.3
#
DISCID=d80cdf0f
DTITLE=Various Artist - 昭和 永遠の名曲大全集 1964-1989 Disc 2 COCP-40155-8
DYEAR=1900
DGENRE=JPop
TTITLE0=村田英雄 - 夫婦春秋
TTITLE1=中井昭 高橋勝とコロラティーノ - 思案橋ブルース
TTITLE2=島倉千代子 - 愛のさざなみ
TTITLE3=都はるみ - 好きになった人
TTITLE4=いしだあゆみ - ブルー・ライト・ヨコハマ
TTITLE5=弘田三枝子 - 人形の家
TTITLE6=千賀かほる - 真夜中のギター
TTITLE7=ヒデとロザンナ - 愛は傷つきやすく
TTITLE8=堺正章 - さらば恋人
TTITLE9=平山三紀 - 真夏の出来事
TTITLE10=宮史郎 ぴんからトリオ - 女のみち
TTITLE11=ちあきなおみ - 喝采
TTITLE12=金田たつえ - 花街の母
TTITLE13=堺正章 - 街の灯り
TTITLE14=中村雅俊 - ふれあい
EXTD=
EXTT0=
EXTT1=
EXTT2=
EXTT3=
EXTT4=
EXTT5=
EXTT6=
EXTT7=
EXTT8=
EXTT9=
EXTT10=
EXTT11=
EXTT12=
EXTT13=
EXTT14=
PLAYORDER=
